<svg id="Layer_1" data-name="Layer 1" xmlns="http://www.w3.org/2000/svg" viewBox="0 0 326.13 414.57"><defs><style>.cls-1{fill:#fff;}.cls-2,.cls-3{fill:#0af;}.cls-3{font-size:80px;font-family:HelveticaRounded-Bold, Helvetica Rounded;font-weight:700;}</style></defs><path class="cls-1" d="M311.38,138.25v-85H91.58V458.74H404.13V146h-85A7.76,7.76,0,0,1,311.38,138.25Z" transform="translate(-84.79 -48.72)"/><path class="cls-2" d="M308.32,48.72h-212A11.51,11.51,0,0,0,84.79,60.2V451.8a11.51,11.51,0,0,0,11.49,11.48H399.43a11.51,11.51,0,0,0,11.49-11.48V151.32ZM400.9,453.27H94.81V58.73H308.32v85.21a7.37,7.37,0,0,0,7.38,7.38h85.2Z" transform="translate(-84.79 -48.72)"/><text class="cls-3" transform="translate(45.26 233.38)">HTML</text></svg>