<?xml version="1.0" encoding="utf-8"?>
<!-- Generator: Adobe Illustrator 24.1.2, SVG Export Plug-In . SVG Version: 6.00 Build 0)  -->
<svg version="1.1" id="Layer_1" xmlns="http://www.w3.org/2000/svg" xmlns:xlink="http://www.w3.org/1999/xlink" x="0px" y="0px"
	 viewBox="0 0 326.2 414.6" style="enable-background:new 0 0 326.2 414.6;" xml:space="preserve">
<style type="text/css">
	.st0{fill:#FFFFFF;}
	.st1{fill:#00AAFF;}
</style>
<g>
	<path class="st0" d="M226.6,89.6v-85H6.8v230l0,0V410h312.5V97.3h-85C230.1,97.3,226.6,93.8,226.6,89.6z"/>
	<path class="st1" d="M223.5,0h-212C5.2,0,0,5.2,0,11.5v221.8l0,0v169.8c0,6.3,5.2,11.5,11.5,11.5h303.2c6.3,0,11.5-5.2,11.5-11.5
		V102.6L223.5,0z M316.1,404.6H10V10h213.5v85.2c0,4.1,3.3,7.4,7.4,7.4h85.2L316.1,404.6L316.1,404.6z"/>
</g>
<g>
	<path class="st1" d="M152.5,215.4c0,12.1-6.7,19.4-19.7,19.4c-15.8,0-18.7-10.5-18.7-16.2c0-4.9,2.2-8,6.2-8c4.7,0,5.9,3.7,5.9,7.6
		c0,3.8,1.8,6.5,6.4,6.5c4.3,0,6.7-3.2,6.7-9.4v-34c0-3.9,2.6-6.6,6.6-6.6s6.6,2.6,6.6,6.6V215.4z"/>
	<path class="st1" d="M194.9,200c12,2.7,15,9.8,15,16.6c0,10.4-7.8,18.2-23.7,18.2c-16.6,0-24.1-8.3-24.1-14.6
		c0-3.2,2.3-5.4,5.5-5.4c7.1,0,5.3,10.4,18.6,10.4c6.8,0,10.6-3.8,10.6-7.6c0-2.3-1.1-4.9-5.6-6l-14.8-3.8
		c-11.9-3-14.1-9.6-14.1-15.8c0-12.8,11.8-17.6,23-17.6c10.2,0,22.3,5.8,22.3,13.4c0,3.3-2.8,5.2-6,5.2c-6.1,0-5-8.6-17.2-8.6
		c-6.1,0-9.4,2.8-9.4,6.8s4.8,5.3,9,6.2L194.9,200z"/>
</g>
</svg>
