<?xml version="1.0" encoding="utf-8"?>
<!-- Generator: Adobe Illustrator 24.1.2, SVG Export Plug-In . SVG Version: 6.00 Build 0)  -->
<svg version="1.1" id="Layer_1" xmlns="http://www.w3.org/2000/svg" xmlns:xlink="http://www.w3.org/1999/xlink" x="0px" y="0px"
	 viewBox="0 0 326.2 414.6" style="enable-background:new 0 0 326.2 414.6;" xml:space="preserve">
<style type="text/css">
	.st0{fill:#FFFFFF;}
	.st1{fill:#00AAFF;}
	.st2{enable-background:new    ;}
</style>
<g>
	<path class="st0" d="M226.6,89.6v-85H6.8v230l0,0V410h312.5V97.3h-85C230.1,97.3,226.6,93.8,226.6,89.6z"/>
	<path class="st1" d="M223.5,0h-212C5.2,0,0,5.2,0,11.5v221.8l0,0v169.8c0,6.3,5.2,11.5,11.5,11.5h303.2c6.3,0,11.5-5.2,11.5-11.5
		V102.6L223.5,0z M316.1,404.6H10V10h213.5v85.2c0,4.1,3.3,7.4,7.4,7.4h85.2L316.1,404.6L316.1,404.6z"/>
</g>
<g class="st2">
	<path class="st1" d="M154.6,216.4c0,13.6-7.6,21.8-22.1,21.8c-17.7,0-21.1-11.8-21.1-18.2c0-5.5,2.5-9,7-9c5.3,0,6.7,4.1,6.7,8.5
		c0,4.2,2,7.3,7.2,7.3c4.9,0,7.6-3.6,7.6-10.6v-38.2c0-4.4,2.9-7.4,7.4-7.4s7.4,3,7.4,7.4V216.4z"/>
	<path class="st1" d="M211.2,248.7c0,4.3-2.6,6.6-6.6,6.6s-6.6-2.3-6.6-6.6v-17.5h-0.2c-2.4,4.2-6.9,6.7-13,6.7
		c-13.9,0-20.2-11.8-20.2-24.4c0-17,9.6-25,20.6-25c6.4,0,11.7,2.7,13.9,8.3h0.2v-2.1c0-4,2.1-6.2,5.9-6.2c4,0,5.9,2.2,5.9,6.2
		V248.7z M188.2,227.6c8,0.1,10.5-7.8,10.5-14.6c0-7.5-2.9-14.3-10.5-14.3c-7,0.2-10.4,6.6-10.4,14.3
		C177.8,219.1,179.8,227.6,188.2,227.6z"/>
</g>
</svg>
