<?xml version="1.0" encoding="utf-8"?>
<!-- Generator: Adobe Illustrator 24.1.2, SVG Export Plug-In . SVG Version: 6.00 Build 0)  -->
<svg version="1.1" id="Layer_1" xmlns="http://www.w3.org/2000/svg" xmlns:xlink="http://www.w3.org/1999/xlink" x="0px" y="0px"
	 viewBox="0 0 326.2 414.6" style="enable-background:new 0 0 326.2 414.6;" xml:space="preserve">
<style type="text/css">
	.st0{fill:#FFFFFF;}
	.st1{fill:#00AAFF;}
</style>
<g>
	<path class="st0" d="M226.6,89.6v-85H6.8v230l0,0V410h312.5V97.3h-85C230.1,97.3,226.6,93.8,226.6,89.6z"/>
	<path class="st1" d="M223.5,0h-212C5.2,0,0,5.2,0,11.5v221.8l0,0v169.8c0,6.3,5.2,11.5,11.5,11.5h303.2c6.3,0,11.5-5.2,11.5-11.5
		V102.6L223.5,0z M316.1,404.6H10V10h213.5v85.2c0,4.1,3.3,7.4,7.4,7.4h85.2L316.1,404.6L316.1,404.6z"/>
</g>
<g>
	<path class="st1" d="M114.1,180.5c0-6.6,3.4-8.6,8.6-8.6h22.6c12.4,0,22.4,6.1,22.4,20.5c0,11.8-8.2,20.5-22.5,20.5h-16.4v17.5
		c0,4.4-2.9,7.4-7.4,7.4s-7.4-3-7.4-7.4L114.1,180.5L114.1,180.5z M128.8,201.6h13.8c5.9,0,10.3-3.6,10.3-9.2
		c0-6.5-4.6-9.2-11.9-9.2h-12.2L128.8,201.6L128.8,201.6z"/>
	<path class="st1" d="M193.4,188.4c10,0,20.1,4,20.1,10c0,3.1-2.1,5.8-5.5,5.8c-5.1,0-5.3-6-13.6-6c-4.6,0-7.6,1.3-7.6,4
		c0,3.1,3,3.8,7,4.7l5.5,1.3c7.5,1.7,16.4,4.9,16.4,14c0,10.7-10.3,15.7-20.2,15.7c-11.9,0-21.8-5.3-21.8-11.8
		c0-2.9,1.6-5.5,5.3-5.5c5.7,0,6.2,8.1,15.9,8.1c4.7,0,7.6-2.1,7.6-4.8c0-3.3-2.9-3.9-7.6-5l-7.7-1.9c-7.6-1.9-13.6-5-13.6-13.9
		C173.7,192.4,184.3,188.4,193.4,188.4z"/>
</g>
</svg>
