<?xml version="1.0" encoding="utf-8"?>
<!-- Generator: Adobe Illustrator 24.1.2, SVG Export Plug-In . SVG Version: 6.00 Build 0)  -->
<svg version="1.1" id="Layer_1" xmlns="http://www.w3.org/2000/svg" xmlns:xlink="http://www.w3.org/1999/xlink" x="0px" y="0px"
	 viewBox="0 0 326.2 414.6" style="enable-background:new 0 0 326.2 414.6;" xml:space="preserve">
<style type="text/css">
	.st0{fill:#FFFFFF;}
	.st1{fill:#00AAFF;}
</style>
<g>
	<path class="st0" d="M226.6,89.6v-85H6.8v230l0,0V410h312.5V97.3h-85C230.1,97.3,226.6,93.8,226.6,89.6z"/>
	<path class="st1" d="M223.5,0h-212C5.2,0,0,5.2,0,11.5v221.8l0,0v169.8c0,6.3,5.2,11.5,11.5,11.5h303.2c6.3,0,11.5-5.2,11.5-11.5
		V102.6L223.5,0z M316.1,404.6H10V10h213.5v85.2c0,4.1,3.3,7.4,7.4,7.4h85.2L316.1,404.6L316.1,404.6z"/>
</g>
<g>
	<path class="st1" d="M141.9,175.2c1.3-3.3,3.6-4.5,7.2-4.5h3.5c3.3,0,6.3,0.8,7.9,5.4l17.8,49.6c0.5,1.4,1.4,4,1.4,5.7
		c0,3.6-3.2,6.5-6.9,6.5c-3.2,0-5.6-1.2-6.7-4l-3.8-10.8h-23.8l-3.9,10.8c-1,2.9-3.1,4-6.6,4c-4,0-6.8-2.5-6.8-6.5
		c0-1.6,0.9-4.2,1.4-5.7L141.9,175.2z M150.8,186.7h-0.2l-8.7,26h17.3L150.8,186.7z"/>
	<path class="st1" d="M193.1,170.3c3.8,0,6.8,3.1,6.8,6.8c0,3.8-3.1,6.8-6.8,6.8c-3.8,0-6.8-3.1-6.8-6.8
		C186.2,173.4,189.3,170.3,193.1,170.3z M186.5,195c0-3.5,1.4-6.6,6.6-6.6c5.1,0,6.6,3.1,6.6,6.6v36.3c0,3.5-1.4,6.6-6.6,6.6
		c-5.1,0-6.6-3.1-6.6-6.6V195z"/>
</g>
</svg>
